<svg width="203" height="471" viewBox="0 0 203 471" fill="none" xmlns="http://www.w3.org/2000/svg">
<path fill-rule="evenodd" clip-rule="evenodd" d="M238.388 0.0779135C287.779 -1.081 336.808 10.6458 377.893 38.1207C420.158 66.3849 454.569 106.545 470.069 155.012C485.528 203.353 479.523 255.49 462.723 303.381C446.232 350.392 416.62 391.273 376.738 421.071C336.465 451.163 288.638 471.149 238.388 470.999C188.234 470.85 140.373 450.89 100.634 420.25C61.7097 390.24 35.1998 348.21 18.9294 301.794C2.33179 254.446 -7.90032 203.022 7.77911 155.361C23.4249 107.802 62.0579 72.4997 103.554 44.5579C143.807 17.4529 189.894 1.2158 238.388 0.0779135Z" fill="#1C2431" fill-opacity="0.4"/>
</svg>
