<svg width="639" height="999" viewBox="0 0 639 999" fill="none" xmlns="http://www.w3.org/2000/svg">
<path fill-rule="evenodd" clip-rule="evenodd" d="M506.139 0.165256C611.004 -2.29281 715.103 22.58 802.332 80.8548C892.067 140.804 965.129 225.984 998.038 328.784C1030.86 431.316 1018.11 541.9 982.442 643.477C947.429 743.188 884.555 829.898 799.881 893.1C714.372 956.926 612.828 999.315 506.139 998.998C399.653 998.682 298.036 956.346 213.663 891.359C131.02 827.706 74.7353 738.559 40.1904 640.112C4.95079 539.684 -16.7737 430.615 16.5164 329.524C49.7351 228.65 131.76 153.773 219.863 94.5081C305.328 37.0179 403.177 2.57874 506.139 0.165256Z" fill="#1C2431" fill-opacity="0.4"/>
</svg>
